<svg xmlns="http://www.w3.org/2000/svg" viewBox="0 0 820 424" role="img" aria-label="AeroWeather brand palette: aero blue primary, dusk indigo, sky base background, sun, droplet and pin accents, cloud white and mist gray text colors">
  <style>
    text {
      font-family: ui-monospace, SFMono-Regular, Menlo, Consolas, monospace;
    }
    .header { font-size: 12px; font-weight: 700; fill: #3b82f6; letter-spacing: 3px; }
    .name {
      font-family: -apple-system, BlinkMacSystemFont, "Segoe UI", Helvetica, Arial, sans-serif;
      font-size: 13px; font-weight: 600; fill: #f5f7f9;
    }
    .value { font-size: 10px; fill: #98a2ad; }
    .swatch { stroke: #ffffff; stroke-opacity: 0.12; }
  </style>
  <rect width="820" height="424" rx="20" fill="#16222e" />

  <text x="32" y="52" class="header">AEROWEATHER · BRAND PALETTE</text>

  <rect x="32" y="80" width="176" height="84" rx="12" class="swatch" fill="#3b82f6" />
  <text x="32" y="188" class="name">Aero blue</text>
  <text x="32" y="205" class="value">oklch(0.623 0.188 259.8)</text>
  <text x="32" y="220" class="value">#3b82f6 · primary</text>

  <rect x="224" y="80" width="176" height="84" rx="12" class="swatch" fill="#6366f1" />
  <text x="224" y="188" class="name">Dusk indigo</text>
  <text x="224" y="205" class="value">oklch(0.585 0.233 277.1)</text>
  <text x="224" y="220" class="value">#6366f1 · mark gradient end</text>

  <rect x="416" y="80" width="176" height="84" rx="12" class="swatch" fill="#16222e" />
  <text x="416" y="188" class="name">Sky base</text>
  <text x="416" y="205" class="value">oklch(0.22 0.025 250)</text>
  <text x="416" y="220" class="value">#16222e · background</text>

  <rect x="608" y="80" width="176" height="84" rx="12" class="swatch" fill="#ff8d28" />
  <text x="608" y="188" class="name">Sun</text>
  <text x="608" y="205" class="value">oklch(0.753 0.172 55.7)</text>
  <text x="608" y="220" class="value">#ff8d28 · sun accent</text>

  <rect x="32" y="248" width="176" height="84" rx="12" class="swatch" fill="#03e9f2" />
  <text x="32" y="356" class="name">Droplet</text>
  <text x="32" y="373" class="value">oklch(0.849 0.144 199.8)</text>
  <text x="32" y="388" class="value">#03e9f2 · droplet accent</text>

  <rect x="224" y="248" width="176" height="84" rx="12" class="swatch" fill="#dd0202" />
  <text x="224" y="356" class="name">Pin red</text>
  <text x="224" y="373" class="value">oklch(0.564 0.231 29.2)</text>
  <text x="224" y="388" class="value">#dd0202 · pin stroke only</text>

  <rect x="416" y="248" width="176" height="84" rx="12" class="swatch" fill="#ffffff" />
  <text x="416" y="356" class="name">Cloud white</text>
  <text x="416" y="373" class="value">oklch(1 0 0)</text>
  <text x="416" y="388" class="value">#ffffff · text strong</text>

  <rect x="608" y="248" width="176" height="84" rx="12" class="swatch" fill="#cccfd1" />
  <text x="608" y="356" class="name">Mist gray</text>
  <text x="608" y="373" class="value">oklch(0.853 0.004 236.5)</text>
  <text x="608" y="388" class="value">#cccfd1 · text mid</text>
</svg>
